<?xml version="1.0" encoding="UTF-8" standalone="no"?>
<!DOCTYPE svg PUBLIC "-//W3C//DTD SVG 1.1//EN"
 "http://www.w3.org/Graphics/SVG/1.1/DTD/svg11.dtd">
<!-- Generated by graphviz version 8.1.0 (20230707.0739)
 -->
<!-- Pages: 1 -->
<svg width="302pt" height="260pt"
 viewBox="0.00 0.00 301.50 260.00" xmlns="http://www.w3.org/2000/svg" xmlns:xlink="http://www.w3.org/1999/xlink">
<g id="graph0" class="graph" transform="scale(1 1) rotate(0) translate(4 256)">
<polygon fill="white" stroke="none" points="-4,4 -4,-256 297.5,-256 297.5,4 -4,4"/>
<!-- 2051321492404039027 -->
<g id="node1" class="node">
<title>2051321492404039027</title>
<polygon fill="none" stroke="black" points="259,-252 34.5,-252 34.5,-216 259,-216 259,-252"/>
<text text-anchor="middle" x="146.75" y="-227" font-family="Helvetica,sans-Serif" font-size="20.00">Count(DropDuplicates)</text>
</g>
<!-- &#45;3908215550395008082 -->
<g id="node2" class="node">
<title>&#45;3908215550395008082</title>
<polygon fill="none" stroke="black" points="276.62,-180 16.88,-180 16.88,-144 276.62,-144 276.62,-180"/>
<text text-anchor="middle" x="146.75" y="-155" font-family="Helvetica,sans-Serif" font-size="20.00">DropDuplicates(Projection)</text>
</g>
<!-- &#45;3908215550395008082&#45;&gt;2051321492404039027 -->
<g id="edge1" class="edge">
<title>&#45;3908215550395008082&#45;&gt;2051321492404039027</title>
<path fill="none" stroke="black" d="M146.75,-180.3C146.75,-187.76 146.75,-196.68 146.75,-205.03"/>
<polygon fill="black" stroke="black" points="143.25,-204.9 146.75,-214.9 150.25,-204.9 143.25,-204.9"/>
</g>
<!-- &#45;5855587836614714604 -->
<g id="node3" class="node">
<title>&#45;5855587836614714604</title>
<polygon fill="none" stroke="black" points="293.5,-108 0,-108 0,-72 293.5,-72 293.5,-108"/>
<text text-anchor="middle" x="146.75" y="-83" font-family="Helvetica,sans-Serif" font-size="20.00">Projection(ReadCSV, track_id)</text>
</g>
<!-- &#45;5855587836614714604&#45;&gt;&#45;3908215550395008082 -->
<g id="edge2" class="edge">
<title>&#45;5855587836614714604&#45;&gt;&#45;3908215550395008082</title>
<path fill="none" stroke="black" d="M146.75,-108.3C146.75,-115.76 146.75,-124.68 146.75,-133.03"/>
<polygon fill="black" stroke="black" points="143.25,-132.9 146.75,-142.9 150.25,-132.9 143.25,-132.9"/>
</g>
<!-- &#45;7569685793891871946 -->
<g id="node4" class="node">
<title>&#45;7569685793891871946</title>
<polygon fill="none" stroke="black" points="199.75,-36 93.75,-36 93.75,0 199.75,0 199.75,-36"/>
<text text-anchor="middle" x="146.75" y="-11" font-family="Helvetica,sans-Serif" font-size="20.00">ReadCSV</text>
</g>
<!-- &#45;7569685793891871946&#45;&gt;&#45;5855587836614714604 -->
<g id="edge3" class="edge">
<title>&#45;7569685793891871946&#45;&gt;&#45;5855587836614714604</title>
<path fill="none" stroke="black" d="M146.75,-36.3C146.75,-43.76 146.75,-52.68 146.75,-61.03"/>
<polygon fill="black" stroke="black" points="143.25,-60.9 146.75,-70.9 150.25,-60.9 143.25,-60.9"/>
</g>
</g>
</svg>
